# xmcd
#
# Track frame offsets:
#	182
#	11830
#	24030
#	37492
#	49682
#	61510
#	75292
#	87402
#	104170
#	115745
#	127530
#
# Disc length: 1835 seconds
#
# Revision: 5
# Processed by: cddbd v1.5.2PL0 Copyright (c) Steve Scherf et al.
# Submitted via: audiograbber 1.83.01
#
DISCID=7c07290b
DTITLE=Diana Ross and The Supremes - Motown Legends - My World Is Empty Without Y
DTITLE=ou - I Hear A Symphony
DYEAR=1994
DGENRE=Oldies
TTITLE0=My World Is Empty Without You
TTITLE1=I Hear A Symphony
TTITLE2=It's Going All The Way (To True Love)
TTITLE3=Hang On Sloopy
TTITLE4=I'll Set You Free
TTITLE5=When The Lovelight Starts Shining Through His Eyes
TTITLE6=Little Miss Lover
TTITLE7=Fancy Passes
TTITLE8=This Old Heart Of Mine (Is Weak For You)
TTITLE9=The Land Of Make Believe
TTITLE10=Mr. Blues
EXTD=\n
EXTT0=
EXTT1=
EXTT2=
EXTT3=
EXTT4=
EXTT5=
EXTT6=
EXTT7=
EXTT8=
EXTT9=
EXTT10=
PLAYORDER=
